<svg width="56" height="56" viewBox="0 0 56 56" fill="none" xmlns="http://www.w3.org/2000/svg">
<rect width="56" height="56" rx="8" fill="#1F1D2B"/>
<path d="M25.7302 18.7882C27.0002 17.7792 28.7802 17.7392 30.0892 18.6682L30.2502 18.7882L36.3392 23.6592C37.0092 24.1782 37.4202 24.9492 37.4902 25.7882L37.5002 25.9892V34.0982C37.5002 36.1882 35.8492 37.8882 33.7802 37.9982H31.7902C30.8392 37.9792 30.0702 37.2392 30.0002 36.3092L29.9902 36.1682V33.3092C29.9902 32.9982 29.7592 32.7392 29.4502 32.6882L29.3602 32.6782H26.6892C26.3702 32.6882 26.1102 32.9182 26.0702 33.2182L26.0602 33.3092V36.1592C26.0602 36.2182 26.0492 36.2882 26.0402 36.3382L26.0302 36.3592L26.0192 36.4282C25.9002 37.2792 25.2002 37.9282 24.3302 37.9892L24.2002 37.9982H22.4102C20.3202 37.9982 18.6102 36.3592 18.5002 34.2982V25.9892C18.5092 25.1382 18.8802 24.3482 19.5002 23.7982L25.7302 18.7882ZM29.3802 19.8782C28.6202 19.2682 27.5402 19.2392 26.7402 19.7682L26.5892 19.8782L20.5092 24.7792C20.1602 25.0382 19.9502 25.4282 19.9002 25.8382L19.8892 25.9982V34.0982C19.8892 35.4282 20.9292 36.5182 22.2502 36.5982H24.2002C24.4202 36.5982 24.6102 36.4492 24.6392 36.2392L24.6602 36.0592L24.6702 36.0082V33.3092C24.6702 32.2392 25.4902 31.3692 26.5402 31.2882H29.3602C30.4292 31.2882 31.2992 32.1092 31.3802 33.1592V36.1682C31.3802 36.3782 31.5302 36.5592 31.7302 36.5982H33.5892C34.9292 36.5982 36.0192 35.5692 36.0992 34.2582L36.1102 34.0982V25.9982C36.0992 25.5692 35.9202 25.1682 35.6102 24.8692L35.4802 24.7582L29.3802 19.8782Z" fill="#FFCA40"/>
</svg>
