<svg width="632" height="48" viewBox="0 0 632 48" fill="none" xmlns="http://www.w3.org/2000/svg">
<path d="M6.14 32.16C5.14 32.16 4.26 31.9667 3.5 31.58C2.74 31.18 2.15333 30.6267 1.74 29.92C1.32667 29.2133 1.12 28.3933 1.12 27.46V22.52C1.12 21.5867 1.32667 20.7667 1.74 20.06C2.15333 19.3533 2.74 18.8067 3.5 18.42C4.26 18.0333 5.14 17.84 6.14 17.84C7.12667 17.84 8 18.0267 8.76 18.4C9.52 18.7733 10.1067 19.3 10.52 19.98C10.9333 20.66 11.14 21.4467 11.14 22.34C11.14 22.4067 11.1133 22.4667 11.06 22.52C11.02 22.56 10.9667 22.58 10.9 22.58L9.06 22.68C8.9 22.68 8.82 22.6067 8.82 22.46C8.82 21.6733 8.57333 21.04 8.08 20.56C7.6 20.08 6.95333 19.84 6.14 19.84C5.32667 19.84 4.67333 20.08 4.18 20.56C3.68667 21.04 3.44 21.6733 3.44 22.46V27.56C3.44 28.3333 3.68667 28.96 4.18 29.44C4.67333 29.92 5.32667 30.16 6.14 30.16C6.95333 30.16 7.6 29.9267 8.08 29.46C8.57333 28.98 8.82 28.3467 8.82 27.56C8.82 27.4133 8.9 27.34 9.06 27.34L10.9 27.42C10.9667 27.42 11.02 27.44 11.06 27.48C11.1133 27.52 11.14 27.5667 11.14 27.62C11.14 28.5267 10.9333 29.3267 10.52 30.02C10.1067 30.7 9.52 31.2267 8.76 31.6C8 31.9733 7.12667 32.16 6.14 32.16ZM18.308 21.62C19.388 21.62 20.248 21.94 20.888 22.58C21.5413 23.22 21.868 24.0933 21.868 25.2V31.76C21.868 31.8267 21.8413 31.8867 21.788 31.94C21.748 31.98 21.6946 32 21.628 32H19.788C19.7213 32 19.6613 31.98 19.608 31.94C19.568 31.8867 19.548 31.8267 19.548 31.76V25.68C19.548 25.0667 19.3746 24.5733 19.028 24.2C18.6813 23.8133 18.2213 23.62 17.648 23.62C17.0746 23.62 16.608 23.8067 16.248 24.18C15.9013 24.5533 15.728 25.0467 15.728 25.66V31.76C15.728 31.8267 15.7013 31.8867 15.648 31.94C15.608 31.98 15.5546 32 15.488 32H13.648C13.5813 32 13.5213 31.98 13.468 31.94C13.428 31.8867 13.408 31.8267 13.408 31.76V18.24C13.408 18.1733 13.428 18.12 13.468 18.08C13.5213 18.0267 13.5813 18 13.648 18H15.488C15.5546 18 15.608 18.0267 15.648 18.08C15.7013 18.12 15.728 18.1733 15.728 18.24V22.66C15.728 22.7 15.7413 22.7267 15.768 22.74C15.7946 22.7533 15.8146 22.74 15.828 22.7C16.3746 21.98 17.2013 21.62 18.308 21.62ZM28.5488 32.16C27.4954 32.16 26.5888 31.8933 25.8288 31.36C25.0821 30.8267 24.5554 30.0867 24.2488 29.14C24.0221 28.42 23.9088 27.66 23.9088 26.86C23.9088 26.0067 24.0154 25.2467 24.2288 24.58C24.5354 23.6467 25.0688 22.92 25.8288 22.4C26.5888 21.88 27.5021 21.62 28.5688 21.62C29.5821 21.62 30.4554 21.88 31.1888 22.4C31.9354 22.92 32.4621 23.64 32.7688 24.56C33.0088 25.2 33.1288 25.96 33.1288 26.84C33.1288 27.68 33.0154 28.44 32.7888 29.12C32.4821 30.0667 31.9554 30.8133 31.2088 31.36C30.4621 31.8933 29.5754 32.16 28.5488 32.16ZM28.5488 30.16C29.0421 30.16 29.4621 30.02 29.8088 29.74C30.1688 29.46 30.4288 29.0667 30.5888 28.56C30.7221 28.12 30.7888 27.56 30.7888 26.88C30.7888 26.16 30.7221 25.6 30.5888 25.2C30.4421 24.6933 30.1888 24.3067 29.8288 24.04C29.4688 23.76 29.0288 23.62 28.5088 23.62C28.0154 23.62 27.5888 23.76 27.2288 24.04C26.8688 24.3067 26.6088 24.6933 26.4488 25.2C26.3154 25.6667 26.2488 26.2267 26.2488 26.88C26.2488 27.5333 26.3154 28.0933 26.4488 28.56C26.5954 29.0667 26.8488 29.46 27.2088 29.74C27.5821 30.02 28.0288 30.16 28.5488 30.16ZM39.662 32.16C38.6087 32.16 37.702 31.8933 36.942 31.36C36.1954 30.8267 35.6687 30.0867 35.362 29.14C35.1354 28.42 35.022 27.66 35.022 26.86C35.022 26.0067 35.1287 25.2467 35.342 24.58C35.6487 23.6467 36.182 22.92 36.942 22.4C37.702 21.88 38.6154 21.62 39.682 21.62C40.6954 21.62 41.5687 21.88 42.302 22.4C43.0487 22.92 43.5754 23.64 43.882 24.56C44.122 25.2 44.242 25.96 44.242 26.84C44.242 27.68 44.1287 28.44 43.902 29.12C43.5954 30.0667 43.0687 30.8133 42.322 31.36C41.5754 31.8933 40.6887 32.16 39.662 32.16ZM39.662 30.16C40.1554 30.16 40.5754 30.02 40.922 29.74C41.282 29.46 41.542 29.0667 41.702 28.56C41.8354 28.12 41.902 27.56 41.902 26.88C41.902 26.16 41.8354 25.6 41.702 25.2C41.5554 24.6933 41.302 24.3067 40.942 24.04C40.582 23.76 40.142 23.62 39.622 23.62C39.1287 23.62 38.702 23.76 38.342 24.04C37.982 24.3067 37.722 24.6933 37.562 25.2C37.4287 25.6667 37.362 26.2267 37.362 26.88C37.362 27.5333 37.4287 28.0933 37.562 28.56C37.7087 29.0667 37.962 29.46 38.322 29.74C38.6954 30.02 39.142 30.16 39.662 30.16ZM50.2353 32.12C49.3953 32.12 48.6553 32 48.0153 31.76C47.3886 31.5067 46.902 31.1667 46.5553 30.74C46.2086 30.3 46.0353 29.8133 46.0353 29.28V29.1C46.0353 29.0333 46.0553 28.98 46.0953 28.94C46.1486 28.8867 46.2086 28.86 46.2753 28.86H48.0353C48.102 28.86 48.1553 28.8867 48.1953 28.94C48.2486 28.98 48.2753 29.0333 48.2753 29.1V29.14C48.2753 29.4733 48.4553 29.7667 48.8153 30.02C49.1886 30.26 49.6553 30.38 50.2153 30.38C50.7486 30.38 51.182 30.2733 51.5153 30.06C51.8486 29.8333 52.0153 29.5533 52.0153 29.22C52.0153 28.9133 51.8753 28.6867 51.5953 28.54C51.3286 28.38 50.8886 28.2133 50.2753 28.04L49.5153 27.8C48.8353 27.6 48.262 27.3867 47.7953 27.16C47.3286 26.9333 46.9353 26.6267 46.6153 26.24C46.2953 25.84 46.1353 25.3333 46.1353 24.72C46.1353 23.7867 46.502 23.0467 47.2353 22.5C47.9686 21.94 48.9353 21.66 50.1353 21.66C50.9486 21.66 51.662 21.7933 52.2753 22.06C52.8886 22.3133 53.362 22.6733 53.6953 23.14C54.0286 23.5933 54.1953 24.1133 54.1953 24.7C54.1953 24.7667 54.1686 24.8267 54.1153 24.88C54.0753 24.92 54.022 24.94 53.9553 24.94H52.2553C52.1886 24.94 52.1286 24.92 52.0753 24.88C52.0353 24.8267 52.0153 24.7667 52.0153 24.7C52.0153 24.3533 51.842 24.0667 51.4953 23.84C51.162 23.6 50.702 23.48 50.1153 23.48C49.5953 23.48 49.1686 23.58 48.8353 23.78C48.5153 23.9667 48.3553 24.2333 48.3553 24.58C48.3553 24.9 48.5086 25.1467 48.8153 25.32C49.1353 25.48 49.662 25.66 50.3953 25.86L50.8353 25.98C51.542 26.1933 52.1353 26.4133 52.6153 26.64C53.0953 26.8533 53.502 27.16 53.8353 27.56C54.1686 27.9467 54.3353 28.4533 54.3353 29.08C54.3353 30.0267 53.962 30.7733 53.2153 31.32C52.4686 31.8533 51.4753 32.12 50.2353 32.12ZM64.9186 25.74C64.9719 26.0733 64.9986 26.4467 64.9986 26.86L64.9786 27.48C64.9786 27.64 64.8986 27.72 64.7386 27.72H58.4786C58.4119 27.72 58.3786 27.7533 58.3786 27.82C58.4186 28.26 58.4786 28.56 58.5586 28.72C58.8786 29.68 59.6586 30.1667 60.8986 30.18C61.8053 30.18 62.5253 29.8067 63.0586 29.06C63.1119 28.98 63.1786 28.94 63.2586 28.94C63.3119 28.94 63.3586 28.96 63.3986 29L64.6386 30.02C64.7586 30.1133 64.7786 30.22 64.6986 30.34C64.2853 30.9267 63.7319 31.38 63.0386 31.7C62.3586 32.02 61.5986 32.18 60.7586 32.18C59.7186 32.18 58.8319 31.9467 58.0986 31.48C57.3786 31.0133 56.8519 30.36 56.5186 29.52C56.2119 28.8 56.0586 27.8 56.0586 26.52C56.0586 25.7467 56.1386 25.12 56.2986 24.64C56.5653 23.7067 57.0653 22.9733 57.7986 22.44C58.5453 21.8933 59.4386 21.62 60.4786 21.62C63.1053 21.62 64.5853 22.9933 64.9186 25.74ZM60.4786 23.62C59.9853 23.62 59.5719 23.7467 59.2386 24C58.9186 24.24 58.6919 24.58 58.5586 25.02C58.4786 25.2467 58.4253 25.54 58.3986 25.9C58.3719 25.9667 58.3986 26 58.4786 26H62.5386C62.6053 26 62.6386 25.9667 62.6386 25.9C62.6119 25.5667 62.5719 25.3133 62.5186 25.14C62.3986 24.66 62.1586 24.2867 61.7986 24.02C61.4519 23.7533 61.0119 23.62 60.4786 23.62ZM71.5828 32C71.5161 32 71.4561 31.98 71.4028 31.94C71.3628 31.8867 71.3428 31.8267 71.3428 31.76V18.24C71.3428 18.1733 71.3628 18.12 71.4028 18.08C71.4561 18.0267 71.5161 18 71.5828 18H76.4628C77.4095 18 78.2428 18.1667 78.9628 18.5C79.6828 18.8333 80.2361 19.3133 80.6228 19.94C81.0228 20.5533 81.2228 21.2733 81.2228 22.1V27.9C81.2228 28.7267 81.0228 29.4533 80.6228 30.08C80.2361 30.6933 79.6828 31.1667 78.9628 31.5C78.2428 31.8333 77.4095 32 76.4628 32H71.5828ZM73.6628 29.9C73.6628 29.9667 73.6961 30 73.7628 30H76.5628C77.2695 30 77.8295 29.78 78.2428 29.34C78.6695 28.8867 78.8895 28.2867 78.9028 27.54V22.48C78.9028 21.72 78.6895 21.12 78.2628 20.68C77.8361 20.2267 77.2628 20 76.5428 20H73.7628C73.6961 20 73.6628 20.0333 73.6628 20.1V29.9ZM84.8061 20.38C84.3928 20.38 84.0528 20.2467 83.7861 19.98C83.5194 19.7133 83.3861 19.3733 83.3861 18.96C83.3861 18.5467 83.5194 18.2067 83.7861 17.94C84.0528 17.6733 84.3928 17.54 84.8061 17.54C85.2194 17.54 85.5594 17.6733 85.8261 17.94C86.0928 18.2067 86.2261 18.5467 86.2261 18.96C86.2261 19.3733 86.0928 19.7133 85.8261 19.98C85.5594 20.2467 85.2194 20.38 84.8061 20.38ZM83.8461 32C83.7794 32 83.7194 31.98 83.6661 31.94C83.6261 31.8867 83.6061 31.8267 83.6061 31.76V22C83.6061 21.9333 83.6261 21.88 83.6661 21.84C83.7194 21.7867 83.7794 21.76 83.8461 21.76H85.6861C85.7528 21.76 85.8061 21.7867 85.8461 21.84C85.8994 21.88 85.9261 21.9333 85.9261 22V31.76C85.9261 31.8267 85.8994 31.8867 85.8461 31.94C85.8061 31.98 85.7528 32 85.6861 32H83.8461ZM92.3838 32.12C91.5438 32.12 90.8038 32 90.1638 31.76C89.5371 31.5067 89.0504 31.1667 88.7038 30.74C88.3571 30.3 88.1838 29.8133 88.1838 29.28V29.1C88.1838 29.0333 88.2038 28.98 88.2438 28.94C88.2971 28.8867 88.3571 28.86 88.4238 28.86H90.1838C90.2504 28.86 90.3038 28.8867 90.3438 28.94C90.3971 28.98 90.4238 29.0333 90.4238 29.1V29.14C90.4238 29.4733 90.6038 29.7667 90.9638 30.02C91.3371 30.26 91.8038 30.38 92.3638 30.38C92.8971 30.38 93.3304 30.2733 93.6638 30.06C93.9971 29.8333 94.1638 29.5533 94.1638 29.22C94.1638 28.9133 94.0238 28.6867 93.7438 28.54C93.4771 28.38 93.0371 28.2133 92.4238 28.04L91.6638 27.8C90.9838 27.6 90.4104 27.3867 89.9438 27.16C89.4771 26.9333 89.0838 26.6267 88.7638 26.24C88.4438 25.84 88.2838 25.3333 88.2838 24.72C88.2838 23.7867 88.6504 23.0467 89.3838 22.5C90.1171 21.94 91.0838 21.66 92.2838 21.66C93.0971 21.66 93.8104 21.7933 94.4238 22.06C95.0371 22.3133 95.5104 22.6733 95.8438 23.14C96.1771 23.5933 96.3438 24.1133 96.3438 24.7C96.3438 24.7667 96.3171 24.8267 96.2638 24.88C96.2238 24.92 96.1704 24.94 96.1038 24.94H94.4038C94.3371 24.94 94.2771 24.92 94.2238 24.88C94.1838 24.8267 94.1638 24.7667 94.1638 24.7C94.1638 24.3533 93.9904 24.0667 93.6438 23.84C93.3104 23.6 92.8504 23.48 92.2638 23.48C91.7438 23.48 91.3171 23.58 90.9838 23.78C90.6638 23.9667 90.5038 24.2333 90.5038 24.58C90.5038 24.9 90.6571 25.1467 90.9638 25.32C91.2838 25.48 91.8104 25.66 92.5438 25.86L92.9838 25.98C93.6904 26.1933 94.2838 26.4133 94.7638 26.64C95.2438 26.8533 95.6504 27.16 95.9838 27.56C96.3171 27.9467 96.4838 28.4533 96.4838 29.08C96.4838 30.0267 96.1104 30.7733 95.3638 31.32C94.6171 31.8533 93.6238 32.12 92.3838 32.12ZM103.347 21.62C104.427 21.62 105.287 21.94 105.927 22.58C106.58 23.22 106.907 24.0933 106.907 25.2V31.76C106.907 31.8267 106.88 31.8867 106.827 31.94C106.787 31.98 106.734 32 106.667 32H104.827C104.76 32 104.7 31.98 104.647 31.94C104.607 31.8867 104.587 31.8267 104.587 31.76V25.68C104.587 25.0667 104.414 24.5733 104.067 24.2C103.72 23.8133 103.26 23.62 102.687 23.62C102.114 23.62 101.647 23.8067 101.287 24.18C100.94 24.5533 100.767 25.0467 100.767 25.66V31.76C100.767 31.8267 100.74 31.8867 100.687 31.94C100.647 31.98 100.594 32 100.527 32H98.687C98.6204 32 98.5604 31.98 98.507 31.94C98.467 31.8867 98.447 31.8267 98.447 31.76V18.24C98.447 18.1733 98.467 18.12 98.507 18.08C98.5604 18.0267 98.6204 18 98.687 18H100.527C100.594 18 100.647 18.0267 100.687 18.08C100.74 18.12 100.767 18.1733 100.767 18.24V22.66C100.767 22.7 100.78 22.7267 100.807 22.74C100.834 22.7533 100.854 22.74 100.867 22.7C101.414 21.98 102.24 21.62 103.347 21.62ZM117.868 25.74C117.921 26.0733 117.948 26.4467 117.948 26.86L117.928 27.48C117.928 27.64 117.848 27.72 117.688 27.72H111.428C111.361 27.72 111.328 27.7533 111.328 27.82C111.368 28.26 111.428 28.56 111.508 28.72C111.828 29.68 112.608 30.1667 113.848 30.18C114.754 30.18 115.474 29.8067 116.008 29.06C116.061 28.98 116.128 28.94 116.208 28.94C116.261 28.94 116.308 28.96 116.348 29L117.588 30.02C117.708 30.1133 117.728 30.22 117.648 30.34C117.234 30.9267 116.681 31.38 115.988 31.7C115.308 32.02 114.548 32.18 113.708 32.18C112.668 32.18 111.781 31.9467 111.048 31.48C110.328 31.0133 109.801 30.36 109.468 29.52C109.161 28.8 109.008 27.8 109.008 26.52C109.008 25.7467 109.088 25.12 109.248 24.64C109.514 23.7067 110.014 22.9733 110.748 22.44C111.494 21.8933 112.388 21.62 113.428 21.62C116.054 21.62 117.534 22.9933 117.868 25.74ZM113.428 23.62C112.934 23.62 112.521 23.7467 112.188 24C111.868 24.24 111.641 24.58 111.508 25.02C111.428 25.2467 111.374 25.54 111.348 25.9C111.321 25.9667 111.348 26 111.428 26H115.488C115.554 26 115.588 25.9667 115.588 25.9C115.561 25.5667 115.521 25.3133 115.468 25.14C115.348 24.66 115.108 24.2867 114.748 24.02C114.401 23.7533 113.961 23.62 113.428 23.62ZM123.712 32.12C122.872 32.12 122.132 32 121.492 31.76C120.865 31.5067 120.379 31.1667 120.032 30.74C119.685 30.3 119.512 29.8133 119.512 29.28V29.1C119.512 29.0333 119.532 28.98 119.572 28.94C119.625 28.8867 119.685 28.86 119.752 28.86H121.512C121.579 28.86 121.632 28.8867 121.672 28.94C121.725 28.98 121.752 29.0333 121.752 29.1V29.14C121.752 29.4733 121.932 29.7667 122.292 30.02C122.665 30.26 123.132 30.38 123.692 30.38C124.225 30.38 124.659 30.2733 124.992 30.06C125.325 29.8333 125.492 29.5533 125.492 29.22C125.492 28.9133 125.352 28.6867 125.072 28.54C124.805 28.38 124.365 28.2133 123.752 28.04L122.992 27.8C122.312 27.6 121.739 27.3867 121.272 27.16C120.805 26.9333 120.412 26.6267 120.092 26.24C119.772 25.84 119.612 25.3333 119.612 24.72C119.612 23.7867 119.979 23.0467 120.712 22.5C121.445 21.94 122.412 21.66 123.612 21.66C124.425 21.66 125.139 21.7933 125.752 22.06C126.365 22.3133 126.839 22.6733 127.172 23.14C127.505 23.5933 127.672 24.1133 127.672 24.7C127.672 24.7667 127.645 24.8267 127.592 24.88C127.552 24.92 127.499 24.94 127.432 24.94H125.732C125.665 24.94 125.605 24.92 125.552 24.88C125.512 24.8267 125.492 24.7667 125.492 24.7C125.492 24.3533 125.319 24.0667 124.972 23.84C124.639 23.6 124.179 23.48 123.592 23.48C123.072 23.48 122.645 23.58 122.312 23.78C121.992 23.9667 121.832 24.2333 121.832 24.58C121.832 24.9 121.985 25.1467 122.292 25.32C122.612 25.48 123.139 25.66 123.872 25.86L124.312 25.98C125.019 26.1933 125.612 26.4133 126.092 26.64C126.572 26.8533 126.979 27.16 127.312 27.56C127.645 27.9467 127.812 28.4533 127.812 29.08C127.812 30.0267 127.439 30.7733 126.692 31.32C125.945 31.8533 124.952 32.12 123.712 32.12Z" fill="white"/>
<rect x="532.5" y="0.5" width="99" height="47" rx="7.5" fill="#1F1D2B"/>
<rect x="532.5" y="0.5" width="99" height="47" rx="7.5" stroke="#393C49"/>
<path fill-rule="evenodd" clip-rule="evenodd" d="M556 27.3333C555.81 27.3333 555.621 27.2692 555.467 27.14L550.467 22.9733C550.113 22.6792 550.065 22.1533 550.36 21.8C550.654 21.4467 551.179 21.3992 551.533 21.6933L556.009 25.4233L560.478 21.8275C560.836 21.5392 561.361 21.5958 561.649 21.9542C561.938 22.3125 561.881 22.8367 561.523 23.1258L556.523 27.1492C556.37 27.2717 556.185 27.3333 556 27.3333Z" fill="white"/>
<mask id="mask0_1_116" style="mask-type:luminance" maskUnits="userSpaceOnUse" x="550" y="21" width="12" height="7">
<path fill-rule="evenodd" clip-rule="evenodd" d="M556 27.3333C555.81 27.3333 555.621 27.2692 555.467 27.14L550.467 22.9733C550.113 22.6792 550.065 22.1533 550.36 21.8C550.654 21.4467 551.179 21.3992 551.533 21.6933L556.009 25.4233L560.478 21.8275C560.836 21.5392 561.361 21.5958 561.649 21.9542C561.938 22.3125 561.881 22.8367 561.523 23.1258L556.523 27.1492C556.37 27.2717 556.185 27.3333 556 27.3333Z" fill="white"/>
</mask>
<g mask="url(#mask0_1_116)">
<rect x="546" y="14" width="20" height="20" fill="white"/>
</g>
<path d="M577.288 30C577.195 30 577.148 29.9533 577.148 29.86V20.34C577.148 20.2467 577.195 20.2 577.288 20.2H580.676C581.647 20.2 582.421 20.4567 583 20.97C583.579 21.474 583.868 22.1507 583.868 23V27.2C583.868 28.0493 583.579 28.7307 583 29.244C582.421 29.748 581.647 30 580.676 30H577.288ZM578.492 28.782C578.492 28.8193 578.511 28.838 578.548 28.838H580.732C581.273 28.838 581.703 28.6747 582.02 28.348C582.347 28.012 582.515 27.564 582.524 27.004V23.196C582.524 22.636 582.361 22.1927 582.034 21.866C581.717 21.53 581.283 21.362 580.732 21.362H578.548C578.511 21.362 578.492 21.3807 578.492 21.418V28.782ZM586.446 21.754C586.185 21.754 585.97 21.67 585.802 21.502C585.634 21.334 585.55 21.1193 585.55 20.858C585.55 20.5967 585.634 20.382 585.802 20.214C585.97 20.046 586.185 19.962 586.446 19.962C586.708 19.962 586.922 20.046 587.09 20.214C587.258 20.382 587.342 20.5967 587.342 20.858C587.342 21.1193 587.258 21.334 587.09 21.502C586.922 21.67 586.708 21.754 586.446 21.754ZM585.886 29.986C585.793 29.986 585.746 29.9393 585.746 29.846V23.014C585.746 22.9207 585.793 22.874 585.886 22.874H586.95C587.044 22.874 587.09 22.9207 587.09 23.014V29.846C587.09 29.9393 587.044 29.986 586.95 29.986H585.886ZM592.381 22.776C593.146 22.776 593.753 23 594.201 23.448C594.649 23.8867 594.873 24.484 594.873 25.24V29.86C594.873 29.9533 594.826 30 594.733 30H593.669C593.575 30 593.529 29.9533 593.529 29.86V25.506C593.529 25.0393 593.393 24.6613 593.123 24.372C592.852 24.0827 592.493 23.938 592.045 23.938C591.606 23.938 591.247 24.0827 590.967 24.372C590.687 24.6613 590.547 25.0347 590.547 25.492V29.86C590.547 29.9533 590.5 30 590.407 30H589.343C589.249 30 589.203 29.9533 589.203 29.86V23.014C589.203 22.9207 589.249 22.874 589.343 22.874H590.407C590.5 22.874 590.547 22.9207 590.547 23.014V23.518C590.547 23.5367 590.551 23.5507 590.561 23.56C590.579 23.5693 590.593 23.5647 590.603 23.546C591.004 23.0327 591.597 22.776 592.381 22.776ZM602.477 25.548C602.514 25.9307 602.528 26.36 602.519 26.836C602.519 26.9293 602.472 26.976 602.379 26.976H597.913C597.875 26.976 597.857 26.9947 597.857 27.032C597.857 27.3493 597.885 27.592 597.941 27.76C598.043 28.1333 598.249 28.4273 598.557 28.642C598.874 28.8473 599.271 28.95 599.747 28.95C600.437 28.95 600.969 28.6653 601.343 28.096C601.389 28.0027 601.45 27.9887 601.525 28.054L602.323 28.586C602.388 28.642 602.402 28.7027 602.365 28.768C602.103 29.188 601.73 29.5193 601.245 29.762C600.769 30.0047 600.227 30.126 599.621 30.126C598.939 30.126 598.365 29.9767 597.899 29.678C597.432 29.3793 597.082 28.9547 596.849 28.404C596.625 27.8533 596.513 27.186 596.513 26.402C596.513 25.7207 596.564 25.2027 596.667 24.848C596.835 24.204 597.171 23.6953 597.675 23.322C598.179 22.9487 598.79 22.762 599.509 22.762C600.451 22.762 601.156 23 601.623 23.476C602.089 23.9427 602.374 24.6333 602.477 25.548ZM599.509 23.924C599.107 23.924 598.776 24.0267 598.515 24.232C598.253 24.428 598.076 24.694 597.983 25.03C597.917 25.2353 597.875 25.4967 597.857 25.814C597.857 25.8513 597.875 25.87 597.913 25.87H601.119C601.156 25.87 601.175 25.8513 601.175 25.814C601.156 25.506 601.128 25.2773 601.091 25.128C600.997 24.764 600.811 24.4747 600.531 24.26C600.26 24.036 599.919 23.924 599.509 23.924ZM607.325 30C607.232 30 607.185 29.9533 607.185 29.86V20.34C607.185 20.2467 607.232 20.2 607.325 20.2H608.389C608.482 20.2 608.529 20.2467 608.529 20.34V29.86C608.529 29.9533 608.482 30 608.389 30H607.325ZM613.832 22.776C614.597 22.776 615.204 23 615.652 23.448C616.1 23.8867 616.324 24.484 616.324 25.24V29.86C616.324 29.9533 616.277 30 616.184 30H615.12C615.026 30 614.98 29.9533 614.98 29.86V25.506C614.98 25.0393 614.844 24.6613 614.574 24.372C614.303 24.0827 613.944 23.938 613.496 23.938C613.057 23.938 612.698 24.0827 612.418 24.372C612.138 24.6613 611.998 25.0347 611.998 25.492V29.86C611.998 29.9533 611.951 30 611.858 30H610.794C610.7 30 610.654 29.9533 610.654 29.86V23.014C610.654 22.9207 610.7 22.874 610.794 22.874H611.858C611.951 22.874 611.998 22.9207 611.998 23.014V23.518C611.998 23.5367 612.002 23.5507 612.012 23.56C612.03 23.5693 612.044 23.5647 612.054 23.546C612.455 23.0327 613.048 22.776 613.832 22.776Z" fill="white"/>
</svg>
