<svg width="105" height="834" viewBox="0 0 105 834" fill="none" xmlns="http://www.w3.org/2000/svg">
<rect width="104" height="834" rx="16" fill="#1F1D2B"/>
<rect x="24" y="754" width="56" height="56" rx="10" fill="#1F1D2B"/>
<path d="M51.331 772.021C53.7102 772.021 55.6521 773.895 55.7611 776.248L55.766 776.456V777.389C55.766 777.804 55.4302 778.139 55.016 778.139C54.6363 778.139 54.3225 777.857 54.2728 777.491L54.266 777.389V776.456C54.266 774.894 53.044 773.616 51.5034 773.526L51.331 773.521H46.456C44.8939 773.521 43.6162 774.744 43.527 776.284L43.522 776.456V787.586C43.522 789.149 44.7439 790.427 46.2836 790.517L46.456 790.521H51.341C52.8983 790.521 54.172 789.304 54.261 787.769L54.266 787.597V786.654C54.266 786.24 54.6018 785.904 55.016 785.904C55.3957 785.904 55.7095 786.187 55.7591 786.553L55.766 786.654V787.597C55.766 789.969 53.8992 791.905 51.5553 792.016L51.341 792.021H46.456C44.0775 792.021 42.1358 790.147 42.0268 787.795L42.022 787.586V776.456C42.022 774.077 43.8957 772.135 46.2473 772.026L46.456 772.021H51.331ZM59.326 778.502L59.4103 778.575L62.3383 781.49C62.3647 781.516 62.3878 781.543 62.409 781.571L62.3383 781.49C62.3689 781.52 62.3963 781.553 62.4205 781.587C62.4376 781.61 62.4533 781.635 62.4676 781.661C62.4702 781.666 62.4728 781.671 62.4754 781.676C62.4881 781.7 62.4993 781.725 62.5092 781.751C62.5132 781.762 62.5173 781.773 62.5211 781.785C62.5284 781.806 62.5345 781.827 62.5397 781.849C62.5421 781.861 62.5445 781.873 62.5467 781.885C62.5508 781.905 62.5538 781.926 62.5559 781.947C62.557 781.962 62.558 781.977 62.5586 781.992C62.5593 782.002 62.5595 782.011 62.5595 782.021L62.5586 782.05C62.5581 782.065 62.557 782.08 62.5555 782.096L62.5595 782.021C62.5595 782.068 62.5552 782.114 62.547 782.159C62.5445 782.17 62.5421 782.181 62.5394 782.193C62.5343 782.216 62.5279 782.239 62.5205 782.261C62.5167 782.271 62.513 782.281 62.509 782.292C62.4997 782.316 62.4889 782.341 62.4769 782.364C62.4739 782.369 62.4708 782.375 62.4675 782.381C62.4331 782.444 62.39 782.502 62.3398 782.552L62.3384 782.553L59.4104 785.469C59.1169 785.761 58.642 785.76 58.3498 785.467C58.084 785.2 58.0607 784.783 58.2791 784.49L58.3519 784.406L59.991 782.77L49.7685 782.771C49.3543 782.771 49.0185 782.436 49.0185 782.021C49.0185 781.642 49.3006 781.328 49.6667 781.278L49.7685 781.271L59.993 781.27L58.352 779.638C58.0852 779.372 58.06 778.956 58.2772 778.661L58.3497 778.577C58.6153 778.31 59.0319 778.285 59.326 778.502Z" fill="#FFCA40"/>
<path d="M12 118C12 111.373 17.3726 106 24 106H104V186H24C17.3726 186 12 180.627 12 174V118Z" fill="#252836"/>
<path d="M100.5 102C104.5 98 104 94 104 94V106H92C92 106 96.5 106 100.5 102Z" fill="#252836"/>
<path d="M100.01 189.51C96.01 185.51 92.01 186.01 92.01 186.01H104.01V198.01C104.01 198.01 104.01 193.51 100.01 189.51Z" fill="#252836"/>
<g filter="url(#filter0_d_1_3391)">
<rect x="24" y="119" width="56" height="56" rx="8" fill="#FFCA40"/>
<path d="M49.7302 137.788C51.0002 136.779 52.7802 136.739 54.0892 137.668L54.2502 137.788L60.3392 142.659C61.0092 143.178 61.4202 143.949 61.4902 144.788L61.5002 144.989V153.098C61.5002 155.188 59.8492 156.888 57.7802 156.998H55.7902C54.8392 156.979 54.0702 156.239 54.0002 155.309L53.9902 155.168V152.309C53.9902 151.998 53.7592 151.739 53.4502 151.688L53.3602 151.678H50.6892C50.3702 151.688 50.1102 151.918 50.0702 152.218L50.0602 152.309V155.159C50.0602 155.218 50.0492 155.288 50.0402 155.338L50.0302 155.359L50.0192 155.428C49.9002 156.279 49.2002 156.928 48.3302 156.989L48.2002 156.998H46.4102C44.3202 156.998 42.6102 155.359 42.5002 153.298V144.989C42.5092 144.138 42.8802 143.348 43.5002 142.798L49.7302 137.788ZM53.3802 138.878C52.6202 138.268 51.5402 138.239 50.7402 138.768L50.5892 138.878L44.5092 143.779C44.1602 144.038 43.9502 144.428 43.9002 144.838L43.8892 144.998V153.098C43.8892 154.428 44.9292 155.518 46.2502 155.598H48.2002C48.4202 155.598 48.6102 155.449 48.6392 155.239L48.6602 155.059L48.6702 155.008V152.309C48.6702 151.239 49.4902 150.369 50.5402 150.288H53.3602C54.4292 150.288 55.2992 151.109 55.3802 152.159V155.168C55.3802 155.378 55.5302 155.559 55.7302 155.598H57.5892C58.9292 155.598 60.0192 154.569 60.0992 153.258L60.1102 153.098V144.998C60.0992 144.569 59.9202 144.168 59.6102 143.869L59.4802 143.758L53.3802 138.878Z" fill="white"/>
</g>
<path d="M12 220C12 213.373 17.3726 208 24 208H104V288H24C17.3726 288 12 282.627 12 276V220Z" fill="#1F1D2B"/>
<path d="M100.5 204C104.5 200 104 196 104 196V208H92C92 208 96.5 208 100.5 204Z" fill="#1F1D2B"/>
<path d="M100.01 291.51C96.01 287.51 92.01 288.01 92.01 288.01H104.01V300.01C104.01 300.01 104.01 295.51 100.01 291.51Z" fill="#1F1D2B"/>
<rect x="24" y="221" width="56" height="56" rx="8" fill="#1F1D2B"/>
<path d="M50.4978 243.761C50.5855 243.935 50.6382 244.124 50.6533 244.321L51.0419 249.81C51.0471 249.885 51.0827 249.955 51.1409 250.004C51.1845 250.041 51.2381 250.064 51.298 250.071L51.3599 250.072L56.9341 249.737C57.3867 249.71 57.8305 249.867 58.1604 250.172C58.4902 250.476 58.6768 250.9 58.6744 251.391C58.4265 255.004 55.773 258.024 52.159 258.806C48.545 259.589 44.8361 257.947 43.0578 254.785C42.5823 253.97 42.2618 253.078 42.1138 252.175L42.0664 251.836C42.0253 251.582 42.0032 251.326 42 251.08L42.0031 250.837C42.0134 247.065 44.6616 243.804 48.3881 242.924L48.6438 242.868L48.7814 242.845C49.502 242.747 50.211 243.125 50.4978 243.761ZM49.0164 244.278L48.9322 244.288L48.7037 244.339C45.7353 245.055 43.6062 247.61 43.488 250.621L43.4828 250.866C43.4757 251.053 43.4825 251.239 43.505 251.438L43.5328 251.641C43.6321 252.495 43.9079 253.321 44.3491 254.077C45.8163 256.686 48.8667 258.037 51.839 257.393C54.8113 256.749 56.9936 254.265 57.1958 251.341C57.1958 251.297 57.1774 251.255 57.1446 251.225C57.1228 251.205 57.0959 251.191 57.0675 251.185L57.024 251.182L51.459 251.517C50.9894 251.55 50.5255 251.399 50.17 251.097C49.8146 250.795 49.5968 250.367 49.5652 249.91L49.177 244.426C49.1763 244.417 49.1739 244.408 49.1568 244.373C49.1315 244.317 49.0765 244.281 49.0164 244.278ZM53.423 239.001C57.7084 239.122 61.3029 242.202 61.9904 246.341L62 246.457L61.9977 246.659C61.9737 246.956 61.8538 247.239 61.6545 247.467C61.4041 247.752 61.0477 247.929 60.6588 247.957L54.0133 248.39C53.1615 248.438 52.4295 247.805 52.3741 246.973L51.9299 240.449L51.9349 240.303L51.957 240.138C52.0162 239.846 52.1684 239.579 52.3925 239.376C52.6739 239.122 53.0474 238.987 53.423 239.001ZM53.4113 240.449L53.8511 246.878C53.8537 246.917 53.888 246.947 53.9214 246.945L60.5182 246.514L60.4854 246.334C59.8318 243.08 57.0119 240.664 53.6287 240.459L53.4113 240.449Z" fill="#FFCA40"/>
<path d="M12 322C12 315.373 17.3726 310 24 310H104V390H24C17.3726 390 12 384.627 12 378V322Z" fill="#1F1D2B"/>
<path d="M100.5 306C104.5 302 104 298 104 298V310H92C92 310 96.5 310 100.5 306Z" fill="#1F1D2B"/>
<path d="M100.01 393.51C96.01 389.51 92.01 390.01 92.01 390.01H104.01V402.01C104.01 402.01 104.01 397.51 100.01 393.51Z" fill="#1F1D2B"/>
<rect x="24" y="323" width="56" height="56" rx="8" fill="#1F1D2B"/>
<path d="M52.6161 341C53.3251 341 54.0041 341.281 54.4983 341.779C54.9925 342.277 55.2599 342.95 55.2383 343.578L55.2468 343.725C55.2641 343.871 55.3124 344.011 55.3908 344.141C55.5435 344.396 55.7935 344.581 56.0857 344.655C56.3779 344.729 56.6882 344.687 56.9821 344.518L57.146 344.435C58.3759 343.869 59.8511 344.319 60.5333 345.479L61.1465 346.522C61.1627 346.549 61.1769 346.578 61.1892 346.607L61.2461 346.718C61.7945 347.865 61.4043 349.229 60.3624 349.922L60.1051 350.081C59.9706 350.173 59.8585 350.293 59.7742 350.437C59.6218 350.693 59.58 350.998 59.658 351.284C59.736 351.571 59.9272 351.815 60.2174 351.979L60.3843 352.084C60.8887 352.43 61.253 352.939 61.4119 353.523C61.5912 354.182 61.495 354.883 61.1399 355.48L60.4803 356.557L60.3808 356.709C59.6058 357.801 58.1011 358.134 56.9527 357.485L56.8166 357.416C56.6746 357.354 56.5214 357.32 56.382 357.316C56.0786 357.315 55.7872 357.432 55.5727 357.642C55.3582 357.852 55.2383 358.138 55.2391 358.47L55.231 358.641C55.12 359.97 53.9845 361 52.6164 361H51.3811C49.9322 361 48.7577 359.849 48.7591 358.475L48.7506 358.328C48.7334 358.182 48.685 358.042 48.6027 357.906C48.4534 357.65 48.2059 357.463 47.9154 357.387C47.6248 357.311 47.3153 357.352 47.0157 357.521L46.8376 357.608C46.2746 357.857 45.6395 357.902 45.0445 357.737C44.3731 357.55 43.8054 357.108 43.4741 356.522L42.8368 355.444L42.752 355.284C42.1716 354.084 42.6265 352.641 43.7811 351.987L43.8865 351.923C44.1949 351.714 44.3799 351.369 44.3799 351C44.3799 350.599 44.1615 350.228 43.7795 350.012L43.6245 349.914C42.51 349.155 42.1695 347.68 42.8599 346.507L43.5092 345.462C44.2313 344.234 45.8316 343.81 47.0624 344.502L47.1956 344.571C47.3314 344.632 47.479 344.665 47.621 344.666C48.2474 344.666 48.7578 344.174 48.7672 343.542L48.7758 343.348C48.827 342.747 49.0931 342.183 49.528 341.755C50.0186 341.272 50.6855 341 51.3811 341H52.6161ZM52.6164 342.448H51.3811C51.0786 342.448 50.7887 342.566 50.5753 342.776C50.3863 342.962 50.2706 343.207 50.2503 343.437L50.2368 343.742C50.1334 345.071 48.9997 346.114 47.6133 346.114C47.2559 346.11 46.9036 346.033 46.5443 345.87L46.3519 345.771C45.8038 345.463 45.1049 345.648 44.7806 346.199L44.1313 347.245C43.8338 347.75 43.9826 348.395 44.4432 348.709L44.704 348.871C45.422 349.347 45.8575 350.143 45.8575 351C45.8575 351.845 45.4341 352.634 44.7022 353.13L44.5464 353.226C44.0335 353.516 43.8356 354.144 44.074 354.638L44.1303 354.745L44.7595 355.808C44.9073 356.07 45.1552 356.262 45.4484 356.344C45.7083 356.416 45.9857 356.396 46.2021 356.302L46.3108 356.25C46.911 355.907 47.6261 355.813 48.2974 355.989C48.9686 356.165 49.5403 356.596 49.8794 357.177C50.0618 357.478 50.1772 357.813 50.2219 358.198L50.2421 358.552C50.3043 359.114 50.7905 359.552 51.3811 359.552H52.6164C53.2137 359.552 53.7099 359.102 53.7565 358.551L53.7621 358.442C53.7588 357.758 54.0345 357.102 54.5279 356.619C55.0212 356.135 55.6914 355.865 56.4053 355.869C56.7556 355.878 57.1004 355.955 57.4528 356.11L57.7687 356.268C58.2647 356.481 58.8529 356.326 59.1511 355.907L59.2236 355.796L59.868 354.744C60.0203 354.487 60.0621 354.182 59.9841 353.896C59.915 353.642 59.7566 353.421 59.5645 353.288L59.2922 353.12C58.7716 352.775 58.3932 352.256 58.2302 351.657C58.0509 350.999 58.1471 350.297 58.4946 349.713C58.6849 349.387 58.9464 349.107 59.2873 348.875L59.448 348.776C59.9601 348.483 60.1578 347.855 59.9212 347.359L59.8505 347.225L59.8378 347.197L59.253 346.202C58.9764 345.732 58.4008 345.529 57.9125 345.689L57.8015 345.733L57.6983 345.784C57.1001 346.129 56.3863 346.227 55.7143 346.056C55.0423 345.885 54.4673 345.46 54.1181 344.876C53.9357 344.575 53.8203 344.24 53.7756 343.855L53.7624 343.602C53.7713 343.299 53.6546 343.005 53.4387 342.788C53.2229 342.57 52.9264 342.448 52.6164 342.448ZM52.0032 347.732C53.8455 347.732 55.339 349.195 55.339 351C55.339 352.805 53.8455 354.268 52.0032 354.268C50.161 354.268 48.6675 352.805 48.6675 351C48.6675 349.195 50.161 347.732 52.0032 347.732ZM52.0032 349.18C50.977 349.18 50.1452 349.995 50.1452 351C50.1452 352.005 50.977 352.82 52.0032 352.82C53.0294 352.82 53.8613 352.005 53.8613 351C53.8613 349.995 53.0294 349.18 52.0032 349.18Z" fill="#FFCA40"/>
<rect opacity="0.26" x="24" y="24" width="56" height="56" rx="12" fill="#FFCA40"/>
<path d="M63.6666 35.3333H40.3333C37.5766 35.3333 35.3333 37.5767 35.3333 40.3333V45.0517C35.3333 46.8067 35.9699 48.4017 36.9999 49.6283V65.3333C36.9999 65.7754 37.1755 66.1993 37.4881 66.5119C37.8006 66.8244 38.2246 67 38.6666 67H51.9999C52.4419 67 52.8659 66.8244 53.1784 66.5119C53.491 66.1993 53.6666 65.7754 53.6666 65.3333V57H60.3333V65.3333C60.3333 65.7754 60.5088 66.1993 60.8214 66.5119C61.134 66.8244 61.5579 67 61.9999 67H65.3333C65.7753 67 66.1992 66.8244 66.5118 66.5119C66.8243 66.1993 66.9999 65.7754 66.9999 65.3333V49.6267C68.0299 48.4017 68.6666 46.8067 68.6666 45.05V40.3333C68.6666 37.5767 66.4233 35.3333 63.6666 35.3333ZM65.3333 40.3333V45.0517C65.3333 46.9517 63.9183 48.5717 62.1816 48.6633L61.9999 48.6667C60.1616 48.6667 58.6666 47.1717 58.6666 45.3333V38.6667H63.6666C64.5866 38.6667 65.3333 39.415 65.3333 40.3333ZM48.6666 45.3333V38.6667H55.3333V45.3333C55.3333 47.1717 53.8383 48.6667 51.9999 48.6667C50.1616 48.6667 48.6666 47.1717 48.6666 45.3333ZM38.6666 40.3333C38.6666 39.415 39.4133 38.6667 40.3333 38.6667H45.3333V45.3333C45.3333 47.1717 43.8383 48.6667 41.9999 48.6667L41.8183 48.6617C40.0816 48.5717 38.6666 46.9517 38.6666 45.0517V40.3333ZM48.6666 58.6667H41.9999V53.6667H48.6666V58.6667Z" fill="url(#paint0_linear_1_3391)"/>
<defs>
<filter id="filter0_d_1_3391" x="0" y="103" width="104" height="104" filterUnits="userSpaceOnUse" color-interpolation-filters="sRGB">
<feFlood flood-opacity="0" result="BackgroundImageFix"/>
<feColorMatrix in="SourceAlpha" type="matrix" values="0 0 0 0 0 0 0 0 0 0 0 0 0 0 0 0 0 0 127 0" result="hardAlpha"/>
<feOffset dy="8"/>
<feGaussianBlur stdDeviation="12"/>
<feColorMatrix type="matrix" values="0 0 0 0 1 0 0 0 0 0.792157 0 0 0 0 0.25098 0 0 0 0.32 0"/>
<feBlend mode="normal" in2="BackgroundImageFix" result="effect1_dropShadow_1_3391"/>
<feBlend mode="normal" in="SourceGraphic" in2="effect1_dropShadow_1_3391" result="shape"/>
</filter>
<linearGradient id="paint0_linear_1_3391" x1="51.9999" y1="35.3333" x2="51.9999" y2="67" gradientUnits="userSpaceOnUse">
<stop stop-color="#FFCA40"/>
<stop offset="1" stop-color="#FFB800"/>
</linearGradient>
</defs>
</svg>
